<?xml version="1.0" encoding="UTF-8"?>
<svg width="58px" height="122px" viewBox="0 0 58 122" version="1.1" xmlns="http://www.w3.org/2000/svg" xmlns:xlink="http://www.w3.org/1999/xlink">
    <!-- Generator: Sketch 42 (36781) - http://www.bohemiancoding.com/sketch -->
    <title>Group 4</title>
    <desc>Created with Sketch.</desc>
    <defs></defs>
    <g id="Page-1" stroke="none" stroke-width="1" fill="none" fill-rule="evenodd">
        <g id="iPhone-SE-Copy" transform="translate(-160.000000, -155.000000)">
            <g id="Group-4" transform="translate(160.000000, 155.000000)">
                <g id="Group">
                    <rect id="Rectangle-5" fill="#3B3561" x="0" y="16" width="58" height="5" rx="2.5"></rect>
                    <rect id="Rectangle-5" fill="#3B3561" x="0" y="52" width="58" height="5" rx="2.5"></rect>
                    <rect id="Rectangle-5" fill="#3B3561" x="0" y="95" width="58" height="5" rx="2.5"></rect>
                    <path d="M5.87363349,14.9396793 L6.13600358,1.20322757 C6.13600358,1.20322757 9.0798199,-0.879439814 10.9506744,1.20322757 L11.0283071,16.2378721 C11.0283071,16.2378721 8.55460051,18.9526238 10.0015895,22.5661427 C10.0015895,22.5661427 9.55037643,51.4755177 9.77598297,51.4755177 C10.0015895,51.4755177 7.17747302,54.387087 9.24407671,58.3344928 L10.3521914,95.3738308 C10.3521914,95.3738308 8.36907861,97.2655299 10.5250806,101.821853 L10.9395199,120.812464 C10.9395199,120.812464 8.28337703,123.17909 7.07850526,120.929582 L6.69997442,100.448151 C6.69997442,100.448151 4.57495671,99.5764447 6.23372963,94.284129 L5.11179376,58.2252689 C5.11179376,58.2252689 3.0741875,55.0191546 5.1881927,51.0611064 L4.9484573,22.183256 C4.9484573,22.183256 3.61984606,17.0687554 5.87363349,14.566331" id="Path-2" fill="#03F7EB"></path>
                    <path d="M49.6452232,14.6620817 L49.9075933,0.925629948 C49.9075933,0.925629948 52.8514096,-1.15703743 54.7222641,0.925629948 L54.7998969,15.9602745 C54.7998969,15.9602745 52.3261902,18.6750261 53.7731792,22.2885451 C53.7731792,22.2885451 53.3219661,51.19792 53.5475727,51.19792 C53.7731792,51.19792 50.9490627,54.1094894 53.0156664,58.0568951 L54.1237811,95.0962331 C54.1237811,95.0962331 52.1406683,96.9879323 54.2966703,101.544255 L54.7111096,120.534866 C54.7111096,120.534866 52.0549667,122.901493 50.850095,120.651984 L50.4715641,100.170554 C50.4715641,100.170554 48.3465464,99.2988471 50.0053193,94.0065314 L48.8833835,57.9476713 C48.8833835,57.9476713 46.8457772,54.741557 48.9597824,50.7835088 L48.720047,21.9056584 C48.720047,21.9056584 47.3914358,16.7911578 49.6452232,14.2887334" id="Path-2" fill="#03F7EB" transform="translate(51.399948, 60.811140) scale(-1, 1) translate(-51.399948, -60.811140) "></path>
                </g>
            </g>
        </g>
    </g>
</svg>