<!--?xml version="1.0" standalone="no"?-->

<svg version="1.0" xmlns="http://www.w3.org/2000/svg" width="300.000000pt" height="156.000000pt" viewBox="0 0 300.000000 156.000000" preserveAspectRatio="xMidYMid meet">
<g transform="translate(0.000000,156.000000) scale(0.100000,-0.100000)" fill="#3E3E3E" stroke="none">
<path class="node" id="node1" d="M1405 1546 c-126 -40 -219 -152 -232 -282 -5 -50 -8 -54 -32 -54 -51
0 -104 -22 -147 -62 -24 -22 -46 -48 -49 -59 -6 -18 -7 -18 -43 0 -98 48 -229
53 -334 12 -97 -38 -193 -140 -219 -234 -9 -33 -11 -34 -71 -40 -168 -15 -296
-153 -259 -279 29 -95 139 -168 269 -176 69 -4 81 -8 116 -38 37 -32 89 -54
129 -54 9 0 17 -4 17 -10 0 -18 64 -81 104 -103 54 -28 164 -30 222 -4 l41 19
47 -46 c85 -82 233 -134 347 -122 69 7 151 36 210 75 l44 29 70 -24 c133 -45
304 -27 415 44 25 16 68 52 97 81 l52 52 48 -21 c69 -30 147 -36 218 -16 67
20 96 37 147 84 34 32 39 34 69 23 112 -39 241 19 289 130 46 109 -4 226 -120
278 -25 11 -62 21 -82 21 -33 0 -38 3 -38 23 0 12 -13 50 -30 85 -94 200 -378
305 -617 228 -16 -5 -23 -3 -23 6 0 26 -62 99 -101 119 -21 10 -59 22 -83 25
-43 6 -43 7 -59 64 -48 173 -242 279 -412 226z m195 -22 c42 -12 67 -29 115
-77 69 -70 95 -131 95 -223 0 -30 5 -54 10 -54 6 0 10 16 10 35 0 34 1 35 39
35 51 0 129 -52 156 -103 l20 -39 -25 -16 c-34 -23 -90 -82 -90 -96 0 -5 22
11 49 38 60 59 143 86 266 86 225 0 407 -117 461 -296 12 -41 12 -45 -4 -50
-44 -15 -69 -26 -92 -44 -40 -31 -15 -34 30 -4 95 63 240 34 294 -58 50 -85
44 -166 -17 -235 -55 -63 -158 -91 -231 -63 -23 8 -25 12 -16 35 12 32 13 45
1 45 -5 0 -12 -12 -15 -26 -11 -41 -91 -119 -149 -145 -71 -31 -194 -33 -252
-4 -40 20 -44 30 -31 73 13 39 -9 24 -29 -20 -23 -53 -104 -135 -167 -170 -88
-49 -140 -61 -251 -56 -89 3 -110 8 -167 35 -36 17 -75 41 -88 53 -13 12 -26
19 -30 15 -4 -4 8 -20 27 -35 l33 -28 -40 -27 c-170 -112 -390 -93 -540 48
l-52 50 -42 -19 c-55 -24 -170 -25 -214 -2 -37 20 -94 77 -94 95 0 7 6 13 14
13 8 0 18 5 21 10 5 8 -9 9 -43 4 -69 -9 -114 8 -162 63 -22 25 -40 41 -40 34
0 -19 -114 -13 -174 9 -150 56 -199 197 -106 303 63 71 115 91 237 92 55 0 96
3 90 7 -7 4 -20 8 -29 8 -26 0 -22 28 13 98 35 71 90 123 169 161 49 23 67 26
160 26 118 0 177 -19 238 -77 22 -22 32 -27 32 -17 0 9 -9 24 -20 34 -19 17
-19 19 -2 47 35 60 136 110 193 95 39 -11 91 -46 96 -68 6 -21 23 -26 23 -6 0
18 -48 67 -76 77 -22 9 -24 14 -18 52 29 218 212 342 414 282z"></path>
</g>
<g transform="translate(0.000000,156.000000) scale(0.100000,-0.100000)" fill="#FFFFFF" stroke="none">

<path class="node" id="node3" d="M1400 1523 c-116 -40 -196 -144 -214 -281 -6 -38 -4 -43 18 -52 28
-10 76 -59 76 -77 0 -20 -17 -15 -23 6 -5 22 -57 57 -96 68 -57 15 -158 -35
-193 -95 -17 -28 -17 -30 2 -47 11 -10 20 -25 20 -34 0 -10 -10 -5 -32 17 -61
58 -120 77 -238 77 -93 0 -111 -3 -160 -26 -79 -38 -134 -90 -169 -161 -35
-70 -39 -98 -13 -98 9 0 22 -4 29 -8 6 -4 -35 -7 -90 -7 -122 -1 -174 -21
-237 -92 -69 -78 -64 -170 12 -244 22 -21 64 -47 94 -59 60 -22 174 -28 174
-9 0 7 18 -9 40 -34 48 -55 93 -72 162 -63 34 5 48 4 43 -4 -3 -5 -13 -10 -21
-10 -8 0 -14 -6 -14 -13 0 -18 57 -75 94 -95 44 -23 159 -22 214 2 l42 19 52
-50 c150 -141 370 -160 540 -48 l40 27 -33 28 c-19 15 -31 31 -27 35 4 4 17
-3 30 -15 13 -12 52 -36 88 -53 57 -27 78 -32 167 -35 111 -5 163 7 251 56 63
35 144 117 167 170 20 44 42 59 29 20 -13 -43 -9 -53 31 -73 58 -29 181 -27
252 4 58 26 138 104 149 145 3 14 10 26 15 26 12 0 11 -13 -1 -45 -9 -23 -7
-27 16 -35 73 -28 176 0 231 63 61 69 67 150 17 235 -54 92 -199 121 -294 58
-45 -30 -70 -27 -30 4 23 18 48 29 92 44 16 5 16 9 4 50 -54 179 -236 296
-461 296 -123 0 -206 -27 -266 -86 -27 -27 -49 -43 -49 -38 0 14 56 73 90 96
l25 16 -20 39 c-27 51 -105 103 -156 103 -38 0 -39 -1 -39 -35 0 -19 -4 -35
-10 -35 -5 0 -10 24 -10 54 0 92 -26 153 -95 223 -48 48 -73 65 -115 77 -67
20 -141 20 -200 -1z"></path>
</g>
</svg>