<?xml version="1.0" encoding="UTF-8"?>
<svg width="214px" height="214px" viewBox="0 0 214 214" version="1.1" xmlns="http://www.w3.org/2000/svg" xmlns:xlink="http://www.w3.org/1999/xlink">
    <!-- Generator: Sketch 42 (36781) - http://www.bohemiancoding.com/sketch -->
    <title>BTN</title>
    <desc>Created with Sketch.</desc>
    <defs></defs>
    <g id="Page-1" stroke="none" stroke-width="1" fill="none" fill-rule="evenodd">
        <g id="BTN" transform="translate(2.000000, 2.000000)" stroke="#3B3561" stroke-width="3" fill="#A3C5E6">
            <circle id="Oval" cx="105" cy="105" r="105"></circle>
        </g>
        <path d="M38.5500002,100 L38.5500002,65.7 L49.1500002,65.7 L49.1500002,91.6 L61.6000002,91.6 L62.6000002,100 L38.5500002,100 Z M67.6000001,100 L67.6000001,65.7 L93.3500001,65.7 L92.3500001,73.6 L77.9000001,73.6 L77.9000001,78.6 L91.8000001,78.6 L91.8000001,86.25 L77.9000001,86.25 L77.9000001,91.8 L92.3500001,91.8 L93.3500001,100 L67.6000001,100 Z M97.6,73.95 L97.6,65.7 L125.4,65.7 L125.4,73.95 L116.7,73.95 L116.7,100 L106.3,100 L106.3,73.95 L97.6,73.95 Z M130.1,74.85 L130.1,65.7 L139.65,65.7 L139.65,73.75 L137.15,83.1 L132.45,83.1 L134.3,74.85 L130.1,74.85 Z M160.4,72.8 C157.633319,72.8 156.25,73.499993 156.25,74.9 C156.25,75.7333375 156.708329,76.3583312 157.625,76.775 C158.541671,77.1916687 159.683326,77.566665 161.05,77.9 L165.5,78.9 C169.133351,79.7333375 171.783325,81.2666555 173.45,83.5 C174.350004,84.766673 174.8,86.4499895 174.8,88.55 C174.8,90.683344 174.433337,92.4999925 173.7,94 C172.966663,95.5000075 171.93334,96.7333285 170.6,97.7 C168.03332,99.566676 164.350024,100.5 159.55,100.5 C155.416646,100.5 152.01668,99.6166755 149.35,97.85 C146.383318,95.84999 144.9,93.0666845 144.9,89.5 L144.9,88.9 C144.9,88.699999 144.916666,88.500001 144.95,88.3 L154.65,88.3 C154.616666,88.433334 154.6,88.666665 154.6,89 C154.6,89.3666685 154.674999,89.7666645 154.825,90.2 C154.975001,90.6333355 155.216665,91.016665 155.55,91.35 C156.350004,92.083337 157.41666,92.45 158.75,92.45 C160.08334,92.45 161.066663,92.3916672 161.7,92.275 C162.333336,92.1583327 162.816665,92.000001 163.15,91.8 C163.716669,91.466665 164,90.933337 164,90.2 C164,89.466663 163.550004,88.900002 162.65,88.5 C161.749995,88.099998 160.616673,87.7500015 159.25,87.45 C157.883326,87.1499985 156.408341,86.8083353 154.825,86.425 C153.241659,86.0416648 151.766673,85.4666705 150.4,84.7 C147.233317,82.8666575 145.65,80.0000195 145.65,76.1 C145.65,72.633316 147.083319,69.90001 149.95,67.9 C152.550013,66.099991 155.966645,65.2 160.2,65.2 C164.266687,65.2 167.549987,66.033325 170.05,67.7 C172.783347,69.566676 174.15,72.233316 174.15,75.7 L174.15,76.3 L164.55,76.3 L164.55,76.1 C164.55,75.233329 164.233336,74.46667 163.6,73.8 C162.966663,73.13333 161.900007,72.8 160.4,72.8 Z M93.4500001,149.8 C93.4500001,152.600014 93.5666656,154.99999 93.8000001,157 L88.2000001,157 L86.8000001,153.35 C85.7666616,154.516672 84.3333426,155.499996 82.5000001,156.3 C80.7333246,157.100004 78.9000096,157.5 77.0000001,157.5 L76.5000001,157.5 C72.3999796,157.5 68.9833471,156.033348 66.2500001,153.1 C63.5499866,150.233319 62.2000001,146.700021 62.2000001,142.5 L62.2000001,137.2 C62.2000001,135.133323 62.5916629,133.183342 63.3750001,131.35 C64.1583374,129.516658 65.2499931,127.93334 66.6500001,126.6 C69.6833486,123.666652 73.5166436,122.2 78.1500001,122.2 L79.5500001,122.2 C83.3500191,122.2 86.5999866,123.366655 89.3000001,125.7 C92.0666806,128.100012 93.4500001,131.099982 93.4500001,134.7 L93.4500001,135.05 L83.7500001,135.05 C83.7500001,133.283324 83.2583384,132.000004 82.2750001,131.2 C81.2916619,130.399996 80.1166736,130 78.7500001,130 L78.5000001,130 C77.0999931,130 75.9166716,130.483328 74.9500001,131.45 C73.9833286,132.416672 73.5000001,133.599993 73.5000001,135 L73.5000001,144.65 C73.5000001,146.050007 73.9833286,147.233328 74.9500001,148.2 C75.9166716,149.166672 77.0999931,149.65 78.5000001,149.65 L79.4000001,149.65 C80.8000071,149.65 81.8749964,149.200004 82.6250001,148.3 C83.3750039,147.399995 83.7500001,146.166674 83.7500001,144.6 L77.9500001,144.6 L77.9500001,137.8 L93.4500001,137.8 L93.4500001,149.8 Z M99.25,142.5 L99.25,137.3 C99.25,135.233323 99.6416628,133.283342 100.425,131.45 C101.208337,129.616657 102.274993,128.025007 103.625,126.675 C104.975007,125.324993 106.566658,124.258337 108.4,123.475 C110.233343,122.691663 112.183323,122.3 114.25,122.3 L117.05,122.3 C119.116677,122.3 121.066658,122.691663 122.9,123.475 C124.733343,124.258337 126.324993,125.324993 127.675,126.675 C129.025007,128.025007 130.091663,129.616657 130.875,131.45 C131.658337,133.283342 132.05,135.233323 132.05,137.3 L132.05,142.5 C132.05,144.566677 131.658337,146.516658 130.875,148.35 C130.091663,150.183342 129.025007,151.774993 127.675,153.125 C126.324993,154.475007 124.733343,155.541663 122.9,156.325 C121.066658,157.108337 119.116677,157.5 117.05,157.5 L114.25,157.5 C112.183323,157.5 110.233343,157.108337 108.4,156.325 C106.566658,155.541663 104.975007,154.475007 103.625,153.125 C102.274993,151.774993 101.208337,150.183342 100.425,148.35 C99.6416628,146.516658 99.25,144.566677 99.25,142.5 Z M110.55,144.65 C110.55,146.050007 111.033329,147.233328 112,148.2 C112.966672,149.166672 114.149993,149.65 115.55,149.65 L115.8,149.65 C117.200007,149.65 118.383329,149.166672 119.35,148.2 C120.316672,147.233328 120.8,146.050007 120.8,144.65 L120.8,135 C120.8,133.599993 120.316672,132.416672 119.35,131.45 C118.383329,130.483328 117.200007,130 115.8,130 L115.55,130 C114.149993,130 112.966672,130.483328 112,131.45 C111.033329,132.416672 110.55,133.599993 110.55,135 L110.55,144.65 Z M137.55,122.7 L149.45,122.7 L146.6,145.45 L140.25,145.45 L137.55,122.7 Z M138.75,157 L138.75,147.85 L148.3,147.85 L148.3,157 L138.75,157 Z" id="LET’S-GO!" fill="#3B3561"></path>
    </g>
</svg>